999
"DXF R12 Output" (www.mydxf.blogspot.com)
 0 
SECTION
 2 
HEADER
 9 
$ACADVER
 1 
AC1009
 9 
$EXTMIN
 10 
 0 
 20 
 0 
 9 
$EXTMAX
 10 
 8.5 
 20 
 11 
 0 
ENDSEC
 0 
SECTION
 2 
ENTITIES
0
LINE
8
Layer 1
10
16.909000
20
45.026900
11
17.850281
21
45.160935
0
LINE
8
Layer 1
10
17.850281
20
45.160935
11
18.193251
21
45.431780
0
LINE
8
Layer 1
10
18.193251
20
45.431780
11
18.224610
21
45.860708
0
LINE
8
Layer 1
10
18.224610
20
45.860708
11
17.443685
21
46.622752
0
LINE
8
Layer 1
10
17.443685
20
46.622752
11
15.868351
21
47.769083
0
LINE
8
Layer 1
10
15.868351
20
47.769083
11
14.243224
21
48.742966
0
LINE
8
Layer 1
10
14.243224
20
48.742966
11
13.644681
21
48.991261
0
LINE
8
Layer 1
10
13.644681
20
48.991261
11
13.312920
21
48.987668
0
LINE
8
Layer 1
10
13.312920
20
48.987668
11
13.266836
21
48.710340
0
LINE
8
Layer 1
10
13.266836
20
48.710340
11
13.438039
21
48.230565
0
LINE
8
Layer 1
10
13.438039
20
48.230565
11
14.280927
21
46.944132
0
LINE
8
Layer 1
10
14.280927
20
46.944132
11
15.538830
21
45.689275
0
LINE
8
Layer 1
10
15.538830
20
45.689275
11
16.228800
21
45.248970
0
LINE
8
Layer 1
10
16.228800
20
45.248970
11
16.908990
21
45.026898
0
LINE
8
Layer 1
10
16.908990
20
45.026898
11
16.909000
21
45.026900
0
LINE
8
Layer 1
10
10.277600
20
55.562100
11
9.850840
21
55.558988
0
LINE
8
Layer 1
10
9.850840
20
55.558988
11
9.555562
21
55.702526
0
LINE
8
Layer 1
10
9.555562
20
55.702526
11
9.421623
21
55.937413
0
LINE
8
Layer 1
10
9.421623
20
55.937413
11
9.478882
21
56.208348
0
LINE
8
Layer 1
10
9.478882
20
56.208348
11
10.156844
21
56.816335
0
LINE
8
Layer 1
10
10.156844
20
56.816335
11
11.141528
21
57.265098
0
LINE
8
Layer 1
10
11.141528
20
57.265098
11
12.053466
21
57.476321
0
LINE
8
Layer 1
10
12.053466
20
57.476321
11
12.513192
21
57.371688
0
LINE
8
Layer 1
10
12.513192
20
57.371688
11
12.433078
21
56.999048
0
LINE
8
Layer 1
10
12.433078
20
56.999048
11
12.025437
21
56.463814
0
LINE
8
Layer 1
10
12.025437
20
56.463814
11
11.302776
21
55.930120
0
LINE
8
Layer 1
10
11.302776
20
55.930120
11
10.277602
21
55.562098
0
LINE
8
Layer 1
10
10.277602
20
55.562098
11
10.277600
21
55.562100
0
LINE
8
Layer 1
10
9.531280
20
48.605500
11
8.527293
21
48.010655
0
LINE
8
Layer 1
10
8.527293
20
48.010655
11
7.473556
21
47.612648
0
LINE
8
Layer 1
10
7.473556
20
47.612648
11
6.641941
21
47.515421
0
LINE
8
Layer 1
10
6.641941
20
47.515421
11
6.394389
21
47.612083
0
LINE
8
Layer 1
10
6.394389
20
47.612083
11
6.304320
21
47.822918
0
LINE
8
Layer 1
10
6.304320
20
47.822918
11
6.851868
21
49.033858
0
LINE
8
Layer 1
10
6.851868
20
49.033858
11
8.100073
21
51.049223
0
LINE
8
Layer 1
10
8.100073
20
51.049223
11
9.457279
21
52.665376
0
LINE
8
Layer 1
10
9.457279
20
52.665376
11
9.991865
21
52.947610
0
LINE
8
Layer 1
10
9.991865
20
52.947610
11
10.190797
21
52.891443
0
LINE
8
Layer 1
10
10.190797
20
52.891443
11
10.331830
21
52.678678
0
LINE
8
Layer 1
10
10.331830
20
52.678678
11
10.475988
21
51.925829
0
LINE
8
Layer 1
10
10.475988
20
51.925829
11
10.487600
21
50.773383
0
LINE
8
Layer 1
10
10.487600
20
50.773383
11
10.221190
21
49.555290
0
LINE
8
Layer 1
10
10.221190
20
49.555290
11
9.938265
21
49.025984
0
LINE
8
Layer 1
10
9.938265
20
49.025984
11
9.531280
21
48.605498
0
LINE
8
Layer 1
10
9.531280
20
48.605498
11
9.531280
21
48.605500
0
LINE
8
Layer 1
10
8.451410
20
41.506800
11
6.312164
21
40.734543
0
LINE
8
Layer 1
10
6.312164
20
40.734543
11
5.452088
21
40.718587
0
LINE
8
Layer 1
10
5.452088
20
40.718587
11
5.228987
21
40.910133
0
LINE
8
Layer 1
10
5.228987
20
40.910133
11
5.202720
21
41.275449
0
LINE
8
Layer 1
10
5.202720
20
41.275449
11
5.540365
21
41.742818
0
LINE
8
Layer 1
10
5.540365
20
41.742818
11
6.317331
21
42.366370
0
LINE
8
Layer 1
10
6.317331
20
42.366370
11
8.583864
21
43.724530
0
LINE
8
Layer 1
10
8.583864
20
43.724530
11
10.791595
21
44.634942
0
LINE
8
Layer 1
10
10.791595
20
44.634942
11
11.495058
21
44.698809
0
LINE
8
Layer 1
10
11.495058
20
44.698809
11
11.680478
21
44.593807
0
LINE
8
Layer 1
10
11.680478
20
44.593807
11
11.729800
21
44.382619
0
LINE
8
Layer 1
10
11.729800
20
44.382619
11
11.358797
21
43.782876
0
LINE
8
Layer 1
10
11.358797
20
43.782876
11
10.504449
21
42.941820
0
LINE
8
Layer 1
10
10.504449
20
42.941820
11
9.443179
21
42.102211
0
LINE
8
Layer 1
10
9.443179
20
42.102211
11
8.451410
21
41.506809
0
LINE
8
Layer 1
10
8.451410
20
41.506809
11
8.451410
21
41.506800
0
LINE
8
Layer 1
10
17.873700
20
39.839900
11
20.126229
21
39.598990
0
LINE
8
Layer 1
10
20.126229
20
39.598990
11
21.009701
21
39.691755
0
LINE
8
Layer 1
10
21.009701
20
39.691755
11
21.224156
21
39.841803
0
LINE
8
Layer 1
10
21.224156
20
39.841803
11
21.223630
21
40.080147
0
LINE
8
Layer 1
10
21.223630
20
40.080147
11
20.842129
21
40.340595
0
LINE
8
Layer 1
10
20.842129
20
40.340595
11
19.998226
21
40.648967
0
LINE
8
Layer 1
10
19.998226
20
40.648967
11
17.571077
21
41.251841
0
LINE
8
Layer 1
10
17.571077
20
41.251841
11
15.237912
21
41.573493
0
LINE
8
Layer 1
10
15.237912
20
41.573493
11
14.511489
21
41.530337
0
LINE
8
Layer 1
10
14.511489
20
41.530337
11
14.294460
21
41.298647
0
LINE
8
Layer 1
10
14.294460
20
41.298647
11
14.720134
21
40.956969
0
LINE
8
Layer 1
10
14.720134
20
40.956969
11
15.659772
21
40.517836
0
LINE
8
Layer 1
10
15.659772
20
40.517836
11
17.873700
21
39.839907
0
LINE
8
Layer 1
10
17.873700
20
39.839907
11
17.873700
21
39.839900
0
LINE
8
Layer 1
10
15.625900
20
56.397700
11
15.967682
21
56.391675
0
LINE
8
Layer 1
10
15.967682
20
56.391675
11
16.204164
21
56.669564
0
LINE
8
Layer 1
10
16.204164
20
56.669564
11
16.311434
21
57.124303
0
LINE
8
Layer 1
10
16.311434
20
57.124303
11
16.265576
21
57.648830
0
LINE
8
Layer 1
10
16.265576
20
57.648830
11
15.722610
21
58.825885
0
LINE
8
Layer 1
10
15.722610
20
58.825885
11
14.933998
21
59.694688
0
LINE
8
Layer 1
10
14.933998
20
59.694688
11
14.203647
21
60.103617
0
LINE
8
Layer 1
10
14.203647
20
60.103617
11
13.955291
21
60.088247
0
LINE
8
Layer 1
10
13.955291
20
60.088247
11
13.835466
21
59.901050
0
LINE
8
Layer 1
10
13.835466
20
59.901050
11
13.899628
21
59.179624
0
LINE
8
Layer 1
10
13.899628
20
59.179624
11
14.226100
21
58.143419
0
LINE
8
Layer 1
10
14.226100
20
58.143419
11
14.804864
21
57.110192
0
LINE
8
Layer 1
10
14.804864
20
57.110192
11
15.625906
21
56.397700
0
LINE
8
Layer 1
10
15.625906
20
56.397700
11
15.625900
21
56.397700
 0 
ENDSEC
 0 
EOF